<?xml version="1.0" encoding="UTF-8" standalone="no"?>
<!DOCTYPE svg PUBLIC "-//W3C//DTD SVG 1.1//EN" "http://www.w3.org/Graphics/SVG/1.1/DTD/svg11.dtd">
<svg width="100%" height="100%" viewBox="0 0 1337 184" version="1.1" xmlns="http://www.w3.org/2000/svg" xmlns:xlink="http://www.w3.org/1999/xlink" xml:space="preserve" xmlns:serif="http://www.serif.com/" style="fill-rule:evenodd;clip-rule:evenodd;stroke-linejoin:round;stroke-miterlimit:2;">
    <g transform="matrix(1,0,0,1,-1882,-6324)">
        <g transform="matrix(1,0,0,1,0,5397.46)">
            <g transform="matrix(0.948134,0,0,0.948134,442.044,865.269)">
                <g>
                    <g transform="matrix(6.01128,0,0,6.01128,894.498,-2068.75)">
                        <path d="M128.398,384.414C125.905,386.071 122.914,387.038 119.699,387.038C111.013,387.038 103.961,379.986 103.961,371.3C103.961,362.615 111.013,355.563 119.699,355.563C122.914,355.563 125.905,356.529 128.398,358.187C127.229,358.964 126.17,359.894 125.248,360.947C123.595,360.059 121.705,359.554 119.699,359.554C113.216,359.554 107.953,364.817 107.953,371.3C107.953,377.783 113.216,383.046 119.699,383.046C121.705,383.046 123.595,382.542 125.248,381.653C126.17,382.707 127.229,383.636 128.398,384.414Z" style="fill:rgb(254,209,35);"/>
                    </g>
                    <g transform="matrix(6.01128,0,0,6.01128,999.085,-2068.75)">
                        <path d="M107.85,360.947C108.771,359.894 109.83,358.964 110.999,358.187C113.492,356.529 116.483,355.563 119.699,355.563C128.384,355.563 135.436,362.615 135.436,371.3C135.436,379.986 128.384,387.038 119.699,387.038C116.483,387.038 113.492,386.071 110.999,384.414C109.83,383.636 108.771,382.707 107.85,381.653C105.429,378.885 103.961,375.263 103.961,371.3C103.961,367.338 105.429,363.715 107.85,360.947ZM110.999,379.19C111.898,380.179 112.962,381.015 114.149,381.653C115.802,382.542 117.692,383.046 119.699,383.046C126.181,383.046 131.445,377.783 131.445,371.3C131.445,364.817 126.181,359.554 119.699,359.554C117.692,359.554 115.802,360.059 114.149,360.947C112.962,361.585 111.898,362.421 110.999,363.411C109.107,365.497 107.953,368.265 107.953,371.3C107.953,374.336 109.107,377.104 110.999,379.19Z" style="fill:rgb(36,119,179);"/>
                    </g>
                    <g transform="matrix(1.42686,0,0,1.42686,1779.16,-168.889)">
                        <path d="M144.251,266.647C134.869,276.029 126.591,280.996 114.313,280.996C94.722,280.996 80.097,267.337 80.097,246.919C80.097,227.466 95.273,213.117 113.899,213.117C125.488,213.117 135.283,218.084 144.251,227.604L157.495,214.911C146.596,202.218 130.73,195.044 114.313,195.044C85.892,195.044 61.61,215.601 61.61,246.919C61.61,277.409 82.995,299.069 114.037,299.069C132.662,299.069 143.975,292.861 157.082,280.03L144.251,266.647Z" style="fill-rule:nonzero;"/>
                    </g>
                    <g transform="matrix(1.42686,0,0,1.42686,1779.16,-168.889)">
                        <path d="M253.795,296.586L272.144,296.586L272.144,223.327L253.795,223.327L253.795,231.329C247.172,224.706 239.584,221.395 230.755,221.395C211.716,221.395 196.263,237.123 196.263,260.025C196.263,282.513 212.543,298.517 231.169,298.517C240.412,298.517 247.31,295.206 253.795,288.86L253.795,296.586ZM234.48,238.227C246.069,238.227 254.622,246.919 254.622,259.749C254.622,273.132 245.793,281.686 234.48,281.686C223.029,281.686 214.751,272.442 214.751,259.887C214.751,247.884 222.339,238.227 234.48,238.227Z" style="fill-rule:nonzero;"/>
                    </g>
                    <g transform="matrix(1.42686,0,0,1.42686,1779.16,-168.889)">
                        <path d="M561.869,275.063C556.765,280.03 551.522,282.237 543.658,282.237C533.173,282.237 524.895,276.167 523.101,265.268L582.15,265.268C582.15,263.612 582.288,262.784 582.288,261.129C582.288,237.951 566.56,221.395 543.382,221.395C519.79,221.395 505.304,239.882 505.304,259.887C505.304,281.41 520.342,298.517 543.658,298.517C559.11,298.517 569.457,293.551 577.321,282.375L561.869,275.063ZM523.929,250.782C527.516,241.538 534.552,236.985 543.658,236.985C553.454,236.985 561.318,242.228 563.801,250.782L523.929,250.782Z" style="fill-rule:nonzero;"/>
                    </g>
                    <g transform="matrix(1.42686,0,0,1.42686,1779.16,-168.889)">
                        <path d="M680.933,273.27C676.38,278.926 669.896,281.686 661.756,281.686C648.235,281.686 639.543,272.856 639.543,260.439C639.543,247.746 648.511,238.227 662.583,238.227C670.585,238.227 675.69,240.986 680.933,246.505L696.247,238.089C688.935,227.328 676.794,221.395 662.445,221.395C638.164,221.395 621.056,238.227 621.056,260.163C621.056,281.548 637.198,298.517 662.17,298.517C676.518,298.517 687.555,293.413 695.419,283.203L680.933,273.27Z" style="fill-rule:nonzero;"/>
                    </g>
                    <g transform="matrix(1.42686,0,0,1.42686,1779.16,-168.889)">
                        <path d="M740.533,296.586L758.883,296.586L758.883,265.406C758.883,257.818 758.607,251.195 762.332,245.401C765.229,240.848 769.644,238.227 774.749,238.227C785.51,238.227 787.303,247.057 787.303,261.957L787.303,296.586L805.653,296.586L805.653,248.16C805.653,230.363 794.34,221.395 780.543,221.395C772.679,221.395 765.919,224.706 758.883,230.777L758.883,195.044L740.533,195.044L740.533,296.586Z" style="fill-rule:nonzero;"/>
                    </g>
                    <g transform="matrix(1.42686,0,0,1.42686,2316.28,-165.346)">
                        <path d="M66.577,205.923L57.195,205.923L57.195,221.651L66.577,221.651L66.577,296.586L84.926,296.586L84.926,221.651L95.825,221.651L95.825,205.923L84.926,205.923L84.926,161.479L66.577,161.479L66.577,205.923Z" style="fill-rule:nonzero;"/>
                    </g>
                    <g transform="matrix(1.42686,0,0,1.42686,2142.69,-165.346)">
                        <rect x="62.576" y="195.044" width="18.349" height="101.542" style="fill-rule:nonzero;"/>
                    </g>
                    <g transform="matrix(1.42686,0,0,1.42686,2229.99,-165.346)">
                        <rect x="62.576" y="177.64" width="18.349" height="118.945" style="fill-rule:nonzero;"/>
                    </g>
                </g>
            </g>
        </g>
    </g>
</svg>
